<?xml version="1.0" standalone="no"?>
<!DOCTYPE svg PUBLIC "-//W3C//DTD SVG 1.1//EN" "http://www.w3.org/Graphics/SVG/1.1/DTD/svg11.dtd">
<svg t="1723557006216" class="icon" viewBox="0 0 1709 1024" version="1.1" xmlns="http://www.w3.org/2000/svg" p-id="7803" xmlns:xlink="http://www.w3.org/1999/xlink" width="80.109375" height="48">
<path d="M853.926338 1024A1027.558026 1027.558026 0 0 1 12.808895 553.628909 71.160528 71.160528 0 0 1 0 513.067408a77.564976 77.564976 0 0 1 12.808895-42.696317A1027.558026 1027.558026 0 0 1 853.926338 0a1027.558026 1027.558026 0 0 1 841.117442 470.371091 71.160528 71.160528 0 1 1-116.703266 81.123002A887.371786 887.371786 0 0 0 853.926338 142.321056a877.409312 877.409312 0 0 0-695.23836 370.034747A877.409312 877.409312 0 0 0 853.926338 881.678944a829.020153 829.020153 0 0 0 524.453092-192.133426 71.160528 71.160528 0 1 1 89.662266 110.298818A969.917999 969.917999 0 0 1 853.926338 1024zM1067.407922 498.123697a213.481584 213.481584 0 0 0-213.481584-213.481584 71.160528 71.160528 0 0 0 0 142.321056 71.160528 71.160528 0 1 1-71.160528 71.160528 71.160528 71.160528 0 0 0-142.321057 0 213.481584 213.481584 0 0 0 426.963169 0z" fill="#d81e06" p-id="7804">
</path>
</svg>