<?xml version="1.0" standalone="no"?><!DOCTYPE svg PUBLIC "-//W3C//DTD SVG 1.1//EN" "http://www.w3.org/Graphics/SVG/1.1/DTD/svg11.dtd"><svg t="1723121575371" class="icon" viewBox="0 0 1046 1024" version="1.1" xmlns="http://www.w3.org/2000/svg" p-id="1019" xmlns:xlink="http://www.w3.org/1999/xlink" width="130.75" height="128"><path d="M904.422046 911.116181c60.095176-193.445733 0-340.877203 0-340.877203H151.798496s-60.099399 147.43147 0 340.877203" fill="#BA9657" p-id="1020"></path><path d="M951.272547 570.238978c0 23.228861-19.005432 42.234293-42.234293 42.234294H137.692242c-23.228861 0-42.234293-19.005432-42.234293-42.234294s19.005432-42.234293 42.234293-42.234293h771.350236c23.224638 0 42.23007 19.005432 42.230069 42.234293z" fill="#AD8C51" p-id="1021"></path><path d="M378.643108 367.058241c-10.545903 0.996729-21.391669-2.559398-28.947385-10.537456-12.32819-12.982822-11.116066-33.061005 3.518117-44.776797C490.585102 201.837687 654.509063 108.715294 840.648263 42.149825c19.799437-7.116478 44.603637 0.743324 54.638505 17.210474 10.055985 16.484045 1.824521 34.974218-17.615923 41.626119-183.35596 62.912203-344.897908 152.377106-480.233477 258.613247a35.93716 35.93716 0 0 1-18.79426 7.458576z" fill="#A9AAC4" p-id="1022"></path><path d="M360.659746 167.416738c96.547594-9.169065 174.030628 56.864252 172.594662 136.7293-1.376838 80.122677-66.620374 144.090738-145.345096 151.726698-78.745839 7.234734-155.156123-43.319714-171.526135-121.761467-16.395353-78.1799 47.728975-157.631052 144.276569-166.694531z" fill="#E0BAC5" p-id="1023"></path><path d="M827.450047 932.233328c48.556767-157.491679 0-277.525763 0-277.525763H219.288897s-48.565214 120.034084 0 277.525763" fill="#CCA55F" p-id="1024"></path><path d="M951.272547 911.116181c0 23.228861-19.005432 42.234293-42.234293 42.234294H141.311721c-23.228861 0-42.234293-19.005432-42.234293-42.234294s19.005432-42.234293 42.234293-42.234293h767.726533c23.228861 0 42.234293 19.005432 42.234293 42.234293z" fill="#AD8C51" p-id="1025"></path></svg>